<svg xmlns="http://www.w3.org/2000/svg" xmlns:xlink="http://www.w3.org/1999/xlink" width="2000" zoomAndPan="magnify" viewBox="0 0 1500 1499.999933" height="2000" preserveAspectRatio="xMidYMid meet" version="1.0"><defs><clipPath id="698faccac2"><path d="M 693 693 L 806.957031 693 L 806.957031 806.957031 L 693 806.957031 Z M 693 693 " clip-rule="nonzero"/></clipPath><clipPath id="0a0ae11c23"><path d="M 692.957031 692.957031 L 806.957031 692.957031 L 806.957031 806.957031 L 692.957031 806.957031 Z M 692.957031 692.957031 " clip-rule="nonzero"/></clipPath></defs><path fill="#8c52ff" d="M 750 75 C 791.421875 75 825 108.578125 825 150 L 825 1350 C 825 1391.421875 791.421875 1425 750 1425 C 708.578125 1425 675 1391.421875 675 1350 L 675 150 C 675 108.578125 708.578125 75 750 75 Z M 750 75 " fill-opacity="1" fill-rule="nonzero"/><path fill="#8c52ff" d="M 75 525 C 116.421875 525 150 558.578125 150 600 L 150 900 C 150 941.421875 116.421875 975 75 975 C 33.578125 975 0 941.421875 0 900 L 0 600 C 0 558.578125 33.578125 525 75 525 Z M 75 525 " fill-opacity="1" fill-rule="nonzero"/><path fill="#8c52ff" d="M 375 375 C 375 333.578125 341.421875 300 300 300 C 258.578125 300 225 333.578125 225 375 L 225 1125 C 225 1166.421875 258.578125 1200 300 1200 C 341.421875 1200 375 1166.421875 375 1125 Z M 375 375 " fill-opacity="1" fill-rule="nonzero"/><path fill="#8c52ff" d="M 525 450 C 566.421875 450 600 483.578125 600 525 L 600 975 C 600 1016.421875 566.421875 1050 525 1050 C 483.578125 1050 450 1016.421875 450 975 L 450 525 C 450 483.578125 483.578125 450 525 450 Z M 525 450 " fill-opacity="1" fill-rule="nonzero"/><path fill="#8c52ff" d="M 1350 600 C 1350 558.578125 1383.578125 525 1425 525 C 1466.421875 525 1500 558.578125 1500 600 L 1500 900 C 1500 941.421875 1466.421875 975 1425 975 C 1383.578125 975 1350 941.421875 1350 900 Z M 1350 600 " fill-opacity="1" fill-rule="nonzero"/><path fill="#8c52ff" d="M 1200 300 C 1241.421875 300 1275 333.578125 1275 375 L 1275 1125 C 1275 1166.421875 1241.421875 1200 1200 1200 C 1158.578125 1200 1125 1166.421875 1125 1125 L 1125 375 C 1125 333.578125 1158.578125 300 1200 300 Z M 1200 300 " fill-opacity="1" fill-rule="nonzero"/><path fill="#8c52ff" d="M 1050 525 C 1050 483.578125 1016.421875 450 975 450 C 933.578125 450 900 483.578125 900 525 L 900 975 C 900 1016.421875 933.578125 1050 975 1050 C 1016.421875 1050 1050 1016.421875 1050 975 Z M 1050 525 " fill-opacity="1" fill-rule="nonzero"/><g clip-path="url(#698faccac2)"><path fill="#8c52ff" d="M 693.316406 693.316406 L 806.679688 693.316406 L 806.679688 806.679688 L 693.316406 806.679688 Z M 693.316406 693.316406 " fill-opacity="1" fill-rule="nonzero"/></g><g clip-path="url(#0a0ae11c23)"><path fill="#8c52ff" d="M 692.957031 692.957031 L 692.957031 807.039062 L 807.039062 807.039062 L 807.039062 692.957031 Z M 806.320312 806.320312 L 693.675781 806.320312 L 693.675781 693.675781 L 806.320312 693.675781 Z M 806.320312 806.320312 " fill-opacity="1" fill-rule="nonzero"/></g></svg>