<svg xmlns="http://www.w3.org/2000/svg" xmlns:xlink="http://www.w3.org/1999/xlink" width="100" zoomAndPan="magnify" viewBox="0 0 75 74.999997" height="100" preserveAspectRatio="xMidYMid meet" version="1.0"><path fill="#8c52ff" d="M 75.011719 37.507812 C 75.011719 16.789062 58.21875 0 37.507812 0 C 16.792969 0 0 16.789062 0 37.507812 C 0 55.09375 12.109375 69.855469 28.445312 73.910156 L 28.445312 48.96875 L 20.710938 48.96875 L 20.710938 37.507812 L 28.445312 37.507812 L 28.445312 32.570312 C 28.445312 19.804688 34.222656 13.886719 46.753906 13.886719 C 49.128906 13.886719 53.230469 14.351562 54.90625 14.816406 L 54.90625 25.207031 C 54.023438 25.113281 52.484375 25.066406 50.574219 25.066406 C 44.425781 25.066406 42.046875 27.394531 42.046875 33.449219 L 42.046875 37.503906 L 54.296875 37.503906 L 52.195312 48.964844 L 42.046875 48.964844 L 42.046875 74.734375 C 60.621094 72.492188 75.011719 56.675781 75.011719 37.503906 Z M 75.011719 37.507812 " fill-opacity="1" fill-rule="nonzero"/><path fill="#ffffff" d="M 52.195312 48.964844 L 54.300781 37.503906 L 42.050781 37.503906 L 42.050781 33.449219 C 42.050781 27.394531 44.425781 25.066406 50.578125 25.066406 C 52.488281 25.066406 54.023438 25.113281 54.910156 25.207031 L 54.910156 14.816406 C 53.234375 14.355469 49.132812 13.886719 46.757812 13.886719 C 34.226562 13.886719 28.449219 19.804688 28.449219 32.570312 L 28.449219 37.507812 L 20.710938 37.507812 L 20.710938 48.96875 L 28.449219 48.96875 L 28.449219 73.910156 C 31.351562 74.628906 34.382812 75.011719 37.511719 75.011719 C 39.046875 75.011719 40.5625 74.917969 42.054688 74.738281 L 42.054688 48.96875 L 52.199219 48.96875 Z M 52.195312 48.964844 " fill-opacity="1" fill-rule="nonzero"/></svg>