<svg xmlns="http://www.w3.org/2000/svg" xmlns:xlink="http://www.w3.org/1999/xlink" width="100" zoomAndPan="magnify" viewBox="0 0 75 74.999997" height="100" preserveAspectRatio="xMidYMid meet" version="1.0"><defs><clipPath id="d0d5c06764"><path d="M 9.203125 54 L 22 54 L 22 75 L 9.203125 75 Z M 9.203125 54 " clip-rule="nonzero"/></clipPath><clipPath id="12756731e7"><path d="M 53 54 L 65.453125 54 L 65.453125 75 L 53 75 Z M 53 54 " clip-rule="nonzero"/></clipPath><clipPath id="2bb9cb5917"><path d="M 32.90625 62.90625 L 41.90625 62.90625 L 41.90625 71.90625 L 32.90625 71.90625 Z M 32.90625 62.90625 " clip-rule="nonzero"/></clipPath></defs><path fill="#ffffff" d="M 54.648438 25.117188 C 54.636719 25.078125 54.628906 25.042969 54.625 25.003906 C 54.535156 24.558594 54.375 24.140625 54.140625 23.75 C 53.90625 23.359375 53.613281 23.019531 53.261719 22.734375 C 52.910156 22.445312 52.519531 22.222656 52.09375 22.070312 C 51.664062 21.917969 51.222656 21.839844 50.769531 21.839844 L 24.210938 21.839844 C 23.691406 21.839844 23.1875 21.941406 22.707031 22.140625 C 22.226562 22.339844 21.800781 22.625 21.433594 22.992188 C 21.0625 23.359375 20.777344 23.785156 20.578125 24.265625 C 20.378906 24.746094 20.277344 25.25 20.277344 25.769531 L 20.277344 40.296875 C 20.277344 40.820312 20.378906 41.320312 20.578125 41.800781 C 20.777344 42.28125 21.0625 42.707031 21.433594 43.078125 C 21.800781 43.445312 22.226562 43.730469 22.707031 43.929688 C 23.1875 44.128906 23.691406 44.230469 24.210938 44.230469 L 50.769531 44.230469 C 51.289062 44.230469 51.789062 44.128906 52.273438 43.929688 C 52.753906 43.730469 53.179688 43.445312 53.546875 43.078125 C 53.917969 42.707031 54.199219 42.28125 54.398438 41.800781 C 54.601562 41.320312 54.699219 40.820312 54.699219 40.296875 L 54.699219 25.769531 C 54.703125 25.550781 54.683594 25.332031 54.648438 25.117188 Z M 29.355469 36.046875 C 29.027344 36.046875 28.703125 36.015625 28.378906 35.953125 C 28.058594 35.886719 27.742188 35.792969 27.441406 35.667969 C 27.136719 35.542969 26.847656 35.386719 26.574219 35.203125 C 26.300781 35.023438 26.046875 34.816406 25.816406 34.582031 C 25.582031 34.351562 25.375 34.097656 25.195312 33.824219 C 25.011719 33.550781 24.855469 33.261719 24.730469 32.957031 C 24.605469 32.65625 24.511719 32.339844 24.445312 32.019531 C 24.382812 31.695312 24.347656 31.371094 24.347656 31.042969 C 24.347656 30.714844 24.382812 30.386719 24.445312 30.066406 C 24.507812 29.742188 24.605469 29.429688 24.730469 29.128906 C 24.855469 28.824219 25.011719 28.535156 25.191406 28.261719 C 25.375 27.988281 25.582031 27.734375 25.816406 27.503906 C 26.046875 27.269531 26.300781 27.0625 26.574219 26.878906 C 26.847656 26.699219 27.136719 26.542969 27.4375 26.417969 C 27.742188 26.292969 28.054688 26.199219 28.378906 26.132812 C 28.699219 26.070312 29.027344 26.039062 29.355469 26.039062 C 29.683594 26.039062 30.007812 26.070312 30.332031 26.132812 C 30.652344 26.199219 30.96875 26.292969 31.269531 26.417969 C 31.574219 26.542969 31.863281 26.699219 32.136719 26.882812 C 32.410156 27.0625 32.660156 27.269531 32.894531 27.503906 C 33.125 27.738281 33.335938 27.988281 33.515625 28.261719 C 33.699219 28.535156 33.851562 28.824219 33.980469 29.128906 C 34.105469 29.433594 34.199219 29.746094 34.261719 30.066406 C 34.328125 30.390625 34.359375 30.714844 34.359375 31.042969 C 34.359375 31.371094 34.328125 31.699219 34.261719 32.019531 C 34.199219 32.339844 34.101562 32.652344 33.976562 32.957031 C 33.851562 33.261719 33.695312 33.550781 33.515625 33.820312 C 33.332031 34.09375 33.125 34.347656 32.890625 34.578125 C 32.660156 34.8125 32.40625 35.019531 32.132812 35.203125 C 31.859375 35.382812 31.574219 35.539062 31.269531 35.664062 C 30.964844 35.789062 30.652344 35.886719 30.332031 35.949219 C 30.011719 36.015625 29.683594 36.046875 29.355469 36.046875 Z M 45.621094 36.046875 C 45.292969 36.046875 44.96875 36.015625 44.648438 35.949219 C 44.324219 35.886719 44.011719 35.792969 43.707031 35.667969 C 43.402344 35.539062 43.117188 35.386719 42.84375 35.203125 C 42.570312 35.019531 42.316406 34.8125 42.082031 34.582031 C 41.851562 34.347656 41.644531 34.097656 41.460938 33.824219 C 41.277344 33.550781 41.125 33.261719 41 32.957031 C 40.875 32.652344 40.777344 32.339844 40.714844 32.019531 C 40.648438 31.695312 40.617188 31.371094 40.617188 31.042969 C 40.617188 30.714844 40.648438 30.386719 40.714844 30.066406 C 40.777344 29.742188 40.875 29.429688 41 29.125 C 41.125 28.824219 41.277344 28.535156 41.460938 28.261719 C 41.644531 27.988281 41.851562 27.734375 42.085938 27.503906 C 42.316406 27.269531 42.570312 27.0625 42.84375 26.878906 C 43.117188 26.699219 43.40625 26.542969 43.707031 26.417969 C 44.011719 26.292969 44.324219 26.195312 44.648438 26.132812 C 44.96875 26.070312 45.296875 26.035156 45.625 26.039062 C 45.953125 26.039062 46.277344 26.070312 46.601562 26.132812 C 46.921875 26.199219 47.234375 26.292969 47.539062 26.417969 C 47.84375 26.542969 48.132812 26.699219 48.40625 26.882812 C 48.679688 27.0625 48.929688 27.273438 49.164062 27.503906 C 49.394531 27.738281 49.601562 27.988281 49.785156 28.261719 C 49.96875 28.535156 50.121094 28.824219 50.246094 29.128906 C 50.375 29.433594 50.46875 29.746094 50.53125 30.066406 C 50.597656 30.390625 50.628906 30.714844 50.628906 31.042969 C 50.628906 31.371094 50.59375 31.699219 50.53125 32.019531 C 50.464844 32.34375 50.371094 32.65625 50.246094 32.957031 C 50.121094 33.261719 49.964844 33.550781 49.78125 33.824219 C 49.601562 34.09375 49.390625 34.347656 49.160156 34.582031 C 48.929688 34.8125 48.675781 35.019531 48.402344 35.203125 C 48.128906 35.386719 47.839844 35.539062 47.539062 35.664062 C 47.234375 35.789062 46.921875 35.886719 46.597656 35.949219 C 46.277344 36.015625 45.953125 36.046875 45.621094 36.046875 Z M 45.621094 36.046875 " fill-opacity="1" fill-rule="nonzero"/><path fill="#ffffff" d="M 47.925781 31.042969 C 47.925781 31.347656 47.867188 31.644531 47.75 31.925781 C 47.632812 32.207031 47.46875 32.457031 47.25 32.671875 C 47.035156 32.886719 46.785156 33.054688 46.503906 33.171875 C 46.222656 33.289062 45.929688 33.347656 45.621094 33.347656 C 45.316406 33.347656 45.023438 33.289062 44.742188 33.171875 C 44.460938 33.054688 44.210938 32.886719 43.996094 32.671875 C 43.777344 32.457031 43.613281 32.207031 43.496094 31.925781 C 43.378906 31.644531 43.320312 31.347656 43.320312 31.042969 C 43.320312 30.738281 43.378906 30.445312 43.496094 30.164062 C 43.613281 29.878906 43.777344 29.632812 43.996094 29.414062 C 44.210938 29.199219 44.460938 29.035156 44.742188 28.917969 C 45.023438 28.800781 45.316406 28.742188 45.621094 28.742188 C 45.929688 28.742188 46.222656 28.800781 46.503906 28.917969 C 46.785156 29.035156 47.035156 29.199219 47.25 29.417969 C 47.464844 29.632812 47.632812 29.882812 47.75 30.164062 C 47.867188 30.445312 47.925781 30.738281 47.925781 31.042969 Z M 47.925781 31.042969 " fill-opacity="1" fill-rule="nonzero"/><path fill="#ffffff" d="M 31.65625 31.042969 C 31.65625 31.347656 31.597656 31.644531 31.480469 31.925781 C 31.363281 32.207031 31.199219 32.457031 30.980469 32.671875 C 30.765625 32.886719 30.515625 33.054688 30.234375 33.171875 C 29.953125 33.289062 29.660156 33.347656 29.355469 33.347656 C 29.046875 33.347656 28.753906 33.289062 28.472656 33.171875 C 28.191406 33.054688 27.941406 32.886719 27.726562 32.671875 C 27.511719 32.457031 27.34375 32.207031 27.226562 31.925781 C 27.109375 31.640625 27.050781 31.347656 27.050781 31.042969 C 27.050781 30.738281 27.109375 30.445312 27.226562 30.160156 C 27.34375 29.878906 27.511719 29.628906 27.726562 29.414062 C 27.945312 29.199219 28.191406 29.03125 28.476562 28.917969 C 28.757812 28.800781 29.050781 28.742188 29.355469 28.742188 C 29.660156 28.742188 29.953125 28.800781 30.238281 28.917969 C 30.519531 29.035156 30.765625 29.199219 30.984375 29.417969 C 31.199219 29.632812 31.363281 29.882812 31.480469 30.164062 C 31.597656 30.445312 31.65625 30.738281 31.65625 31.042969 Z M 31.65625 31.042969 " fill-opacity="1" fill-rule="nonzero"/><g clip-path="url(#d0d5c06764)"><path fill="#ffffff" d="M 21.054688 54.847656 L 21.054688 75 L 9.222656 75 L 9.222656 67.738281 C 9.222656 66.933594 9.296875 66.136719 9.449219 65.347656 C 9.597656 64.558594 9.816406 63.792969 10.109375 63.042969 C 10.402344 62.296875 10.757812 61.582031 11.183594 60.902344 C 11.609375 60.21875 12.089844 59.582031 12.632812 58.992188 C 13.175781 58.402344 13.769531 57.863281 14.414062 57.382812 C 15.054688 56.902344 15.734375 56.484375 16.457031 56.128906 C 17.175781 55.773438 17.921875 55.488281 18.695312 55.273438 C 19.46875 55.058594 20.253906 54.914062 21.054688 54.847656 Z M 21.054688 54.847656 " fill-opacity="1" fill-rule="nonzero"/></g><path fill="#ffffff" d="M 23.757812 54.800781 L 51.222656 54.800781 L 51.222656 75 L 23.757812 75 Z M 23.757812 54.800781 " fill-opacity="1" fill-rule="nonzero"/><g clip-path="url(#12756731e7)"><path fill="#ffffff" d="M 65.757812 67.738281 L 65.757812 75 L 53.933594 75 L 53.933594 54.847656 C 54.730469 54.917969 55.515625 55.058594 56.289062 55.277344 C 57.0625 55.492188 57.808594 55.777344 58.527344 56.132812 C 59.25 56.488281 59.929688 56.90625 60.570312 57.386719 C 61.214844 57.867188 61.804688 58.402344 62.347656 58.996094 C 62.890625 59.585938 63.375 60.222656 63.796875 60.902344 C 64.222656 61.585938 64.578125 62.296875 64.871094 63.046875 C 65.164062 63.792969 65.382812 64.5625 65.53125 65.351562 C 65.679688 66.140625 65.753906 66.933594 65.757812 67.738281 Z M 65.757812 67.738281 " fill-opacity="1" fill-rule="nonzero"/></g><path fill="#ffffff" d="M 28.164062 46.925781 L 46.8125 46.925781 L 46.8125 52.097656 L 28.164062 52.097656 Z M 28.164062 46.925781 " fill-opacity="1" fill-rule="nonzero"/><path fill="#ffffff" d="M 17.574219 26.308594 L 17.574219 39.742188 C 16.890625 39.605469 16.242188 39.367188 15.628906 39.03125 C 15.015625 38.695312 14.464844 38.273438 13.980469 37.769531 C 13.496094 37.265625 13.101562 36.699219 12.789062 36.070312 C 12.476562 35.445312 12.269531 34.785156 12.160156 34.097656 C 12.050781 33.40625 12.046875 32.714844 12.148438 32.023438 C 12.25 31.332031 12.453125 30.667969 12.757812 30.039062 C 13.0625 29.410156 13.457031 28.839844 13.933594 28.332031 C 14.414062 27.824219 14.960938 27.398438 15.570312 27.054688 C 16.199219 26.699219 16.867188 26.449219 17.574219 26.308594 Z M 17.574219 26.308594 " fill-opacity="1" fill-rule="nonzero"/><path fill="#ffffff" d="M 62.90625 33.023438 C 62.902344 33.816406 62.769531 34.585938 62.503906 35.328125 C 62.238281 36.074219 61.851562 36.753906 61.351562 37.363281 C 60.851562 37.976562 60.261719 38.488281 59.582031 38.894531 C 58.90625 39.304688 58.179688 39.585938 57.402344 39.742188 L 57.402344 26.308594 C 58.113281 26.449219 58.78125 26.695312 59.410156 27.050781 C 59.941406 27.347656 60.421875 27.710938 60.855469 28.136719 C 61.289062 28.566406 61.660156 29.039062 61.964844 29.566406 C 62.273438 30.089844 62.507812 30.644531 62.664062 31.234375 C 62.824219 31.820312 62.90625 32.417969 62.90625 33.023438 Z M 62.90625 33.023438 " fill-opacity="1" fill-rule="nonzero"/><path fill="#ffffff" d="M 44.335938 19.128906 L 30.644531 19.128906 C 30.800781 18.335938 31.085938 17.59375 31.5 16.898438 C 31.914062 16.203125 32.433594 15.601562 33.058594 15.085938 C 33.683594 14.574219 34.375 14.179688 35.136719 13.910156 C 35.898438 13.636719 36.679688 13.5 37.488281 13.5 C 38.296875 13.5 39.082031 13.636719 39.84375 13.910156 C 40.605469 14.179688 41.296875 14.574219 41.921875 15.085938 C 42.546875 15.601562 43.066406 16.203125 43.480469 16.898438 C 43.894531 17.59375 44.179688 18.335938 44.335938 19.128906 Z M 44.335938 19.128906 " fill-opacity="1" fill-rule="nonzero"/><path fill="#ffffff" d="M 39.347656 1.859375 C 39.347656 2.105469 39.300781 2.339844 39.207031 2.570312 C 39.113281 2.796875 38.976562 2.996094 38.804688 3.171875 C 38.628906 3.347656 38.429688 3.480469 38.199219 3.574219 C 37.972656 3.667969 37.734375 3.714844 37.488281 3.714844 C 37.242188 3.714844 37.007812 3.667969 36.777344 3.574219 C 36.550781 3.480469 36.351562 3.347656 36.175781 3.171875 C 36 2.996094 35.867188 2.796875 35.773438 2.570312 C 35.679688 2.339844 35.632812 2.105469 35.632812 1.859375 C 35.632812 1.613281 35.679688 1.375 35.773438 1.148438 C 35.867188 0.917969 36 0.71875 36.175781 0.542969 C 36.351562 0.371094 36.550781 0.234375 36.777344 0.140625 C 37.007812 0.046875 37.242188 0 37.488281 0 C 37.734375 0 37.972656 0.046875 38.199219 0.140625 C 38.429688 0.234375 38.628906 0.371094 38.804688 0.542969 C 38.976562 0.71875 39.113281 0.917969 39.207031 1.148438 C 39.300781 1.375 39.347656 1.613281 39.347656 1.859375 Z M 39.347656 1.859375 " fill-opacity="1" fill-rule="nonzero"/><path fill="#ffffff" d="M 38.839844 6.210938 L 38.839844 10.890625 C 37.941406 10.765625 37.039062 10.765625 36.136719 10.890625 L 36.136719 6.210938 C 37.039062 6.492188 37.941406 6.492188 38.839844 6.210938 Z M 38.839844 6.210938 " fill-opacity="1" fill-rule="nonzero"/><g clip-path="url(#2bb9cb5917)"><path fill="#ffffff" d="M 32.933594 62.933594 L 42.0625 62.933594 L 42.0625 72.0625 L 32.933594 72.0625 Z M 32.933594 62.933594 " fill-opacity="1" fill-rule="nonzero"/><path fill="#ffffff" d="M 32.90625 62.90625 L 32.90625 72.09375 L 42.09375 72.09375 L 42.09375 62.90625 Z M 42.035156 72.035156 L 32.960938 72.035156 L 32.960938 62.960938 L 42.035156 62.960938 Z M 42.035156 72.035156 " fill-opacity="1" fill-rule="nonzero"/></g></svg>
