<svg xmlns="http://www.w3.org/2000/svg" xmlns:xlink="http://www.w3.org/1999/xlink" width="360" zoomAndPan="magnify" viewBox="0 0 270 60" height="80" preserveAspectRatio="xMidYMid meet" version="1.0"><defs><g/><clipPath id="404c1957e7"><rect x="0" width="224" y="0" height="50"/></clipPath><clipPath id="c1502451ce"><path d="M 21 19.097656 L 25 19.097656 L 25 49.847656 L 21 49.847656 Z M 21 19.097656 " clip-rule="nonzero"/></clipPath><clipPath id="a040f29f83"><path d="M 36 29 L 39.75 29 L 39.75 40 L 36 40 Z M 36 29 " clip-rule="nonzero"/></clipPath></defs><g transform="matrix(1, 0, 0, 1, 46, 8)"><g clip-path="url(#404c1957e7)"><g fill="#ffffff" fill-opacity="1"><g transform="translate(0.819957, 36.705576)"><g><path d="M 29.875 0 L 29.84375 -17.4375 L 21.296875 -3.078125 L 18.265625 -3.078125 L 9.75 -17.0625 L 9.75 0 L 3.4375 0 L 3.4375 -29.046875 L 9 -29.046875 L 19.875 -11 L 30.578125 -29.046875 L 36.109375 -29.046875 L 36.1875 0 Z M 29.875 0 "/></g></g></g><g fill="#ffffff" fill-opacity="1"><g transform="translate(40.448556, 36.705576)"><g><path d="M 24.859375 -11.078125 C 24.859375 -10.992188 24.816406 -10.414062 24.734375 -9.34375 L 7.84375 -9.34375 C 8.144531 -7.957031 8.863281 -6.863281 10 -6.0625 C 11.132812 -5.257812 12.546875 -4.859375 14.234375 -4.859375 C 15.398438 -4.859375 16.429688 -5.03125 17.328125 -5.375 C 18.222656 -5.71875 19.0625 -6.265625 19.84375 -7.015625 L 23.28125 -3.28125 C 21.175781 -0.875 18.101562 0.328125 14.0625 0.328125 C 11.550781 0.328125 9.328125 -0.160156 7.390625 -1.140625 C 5.453125 -2.117188 3.957031 -3.476562 2.90625 -5.21875 C 1.851562 -6.96875 1.328125 -8.945312 1.328125 -11.15625 C 1.328125 -13.34375 1.84375 -15.316406 2.875 -17.078125 C 3.914062 -18.835938 5.34375 -20.207031 7.15625 -21.1875 C 8.96875 -22.164062 10.992188 -22.65625 13.234375 -22.65625 C 15.421875 -22.65625 17.398438 -22.1875 19.171875 -21.25 C 20.941406 -20.3125 22.332031 -18.960938 23.34375 -17.203125 C 24.351562 -15.441406 24.859375 -13.398438 24.859375 -11.078125 Z M 13.28125 -17.765625 C 11.8125 -17.765625 10.578125 -17.347656 9.578125 -16.515625 C 8.585938 -15.679688 7.984375 -14.546875 7.765625 -13.109375 L 18.765625 -13.109375 C 18.535156 -14.523438 17.921875 -15.65625 16.921875 -16.5 C 15.929688 -17.34375 14.71875 -17.765625 13.28125 -17.765625 Z M 13.28125 -17.765625 "/></g></g></g><g fill="#ffffff" fill-opacity="1"><g transform="translate(66.010038, 36.705576)"><g><path d="M 12 -22.65625 C 15.457031 -22.65625 18.109375 -21.832031 19.953125 -20.1875 C 21.804688 -18.539062 22.734375 -16.054688 22.734375 -12.734375 L 22.734375 0 L 16.6875 0 L 16.6875 -2.78125 C 15.46875 -0.707031 13.195312 0.328125 9.875 0.328125 C 8.15625 0.328125 6.664062 0.0390625 5.40625 -0.53125 C 4.15625 -1.113281 3.195312 -1.914062 2.53125 -2.9375 C 1.863281 -3.96875 1.53125 -5.132812 1.53125 -6.4375 C 1.53125 -8.507812 2.3125 -10.140625 3.875 -11.328125 C 5.4375 -12.515625 7.851562 -13.109375 11.125 -13.109375 L 16.265625 -13.109375 C 16.265625 -14.523438 15.832031 -15.613281 14.96875 -16.375 C 14.113281 -17.132812 12.832031 -17.515625 11.125 -17.515625 C 9.9375 -17.515625 8.765625 -17.328125 7.609375 -16.953125 C 6.460938 -16.578125 5.488281 -16.070312 4.6875 -15.4375 L 2.359375 -19.96875 C 3.578125 -20.820312 5.035156 -21.484375 6.734375 -21.953125 C 8.441406 -22.421875 10.195312 -22.65625 12 -22.65625 Z M 11.5 -4.03125 C 12.601562 -4.03125 13.582031 -4.285156 14.4375 -4.796875 C 15.300781 -5.304688 15.910156 -6.0625 16.265625 -7.0625 L 16.265625 -9.34375 L 11.828125 -9.34375 C 9.171875 -9.34375 7.84375 -8.46875 7.84375 -6.71875 C 7.84375 -5.894531 8.164062 -5.238281 8.8125 -4.75 C 9.46875 -4.269531 10.363281 -4.03125 11.5 -4.03125 Z M 11.5 -4.03125 "/></g></g></g><g fill="#ffffff" fill-opacity="1"><g transform="translate(91.613032, 36.705576)"><g><path d="M 10.5 0.328125 C 8.644531 0.328125 6.832031 0.101562 5.0625 -0.34375 C 3.289062 -0.800781 1.878906 -1.378906 0.828125 -2.078125 L 2.984375 -6.71875 C 3.984375 -6.082031 5.1875 -5.5625 6.59375 -5.15625 C 8.007812 -4.757812 9.394531 -4.5625 10.75 -4.5625 C 13.488281 -4.5625 14.859375 -5.238281 14.859375 -6.59375 C 14.859375 -7.226562 14.484375 -7.6875 13.734375 -7.96875 C 12.984375 -8.25 11.835938 -8.484375 10.296875 -8.671875 C 8.460938 -8.953125 6.953125 -9.269531 5.765625 -9.625 C 4.578125 -9.988281 3.546875 -10.625 2.671875 -11.53125 C 1.804688 -12.445312 1.375 -13.75 1.375 -15.4375 C 1.375 -16.84375 1.78125 -18.09375 2.59375 -19.1875 C 3.40625 -20.28125 4.59375 -21.128906 6.15625 -21.734375 C 7.71875 -22.347656 9.566406 -22.65625 11.703125 -22.65625 C 13.273438 -22.65625 14.84375 -22.484375 16.40625 -22.140625 C 17.976562 -21.796875 19.273438 -21.316406 20.296875 -20.703125 L 18.140625 -16.109375 C 16.171875 -17.210938 14.023438 -17.765625 11.703125 -17.765625 C 10.316406 -17.765625 9.273438 -17.566406 8.578125 -17.171875 C 7.890625 -16.785156 7.546875 -16.289062 7.546875 -15.6875 C 7.546875 -15 7.921875 -14.515625 8.671875 -14.234375 C 9.421875 -13.953125 10.613281 -13.691406 12.25 -13.453125 C 14.070312 -13.140625 15.5625 -12.8125 16.71875 -12.46875 C 17.882812 -12.125 18.894531 -11.492188 19.75 -10.578125 C 20.613281 -9.671875 21.046875 -8.398438 21.046875 -6.765625 C 21.046875 -5.378906 20.628906 -4.144531 19.796875 -3.0625 C 18.960938 -1.988281 17.75 -1.15625 16.15625 -0.5625 C 14.570312 0.03125 12.6875 0.328125 10.5 0.328125 Z M 10.5 0.328125 "/></g></g></g><g fill="#ffffff" fill-opacity="1"><g transform="translate(113.647366, 36.705576)"><g><path d="M 25.484375 -22.328125 L 25.484375 0 L 19.34375 0 L 19.34375 -2.65625 C 18.476562 -1.6875 17.453125 -0.945312 16.265625 -0.4375 C 15.078125 0.0703125 13.789062 0.328125 12.40625 0.328125 C 9.476562 0.328125 7.15625 -0.515625 5.4375 -2.203125 C 3.71875 -3.890625 2.859375 -6.394531 2.859375 -9.71875 L 2.859375 -22.328125 L 9.34375 -22.328125 L 9.34375 -10.671875 C 9.34375 -7.066406 10.847656 -5.265625 13.859375 -5.265625 C 15.410156 -5.265625 16.65625 -5.769531 17.59375 -6.78125 C 18.53125 -7.789062 19 -9.289062 19 -11.28125 L 19 -22.328125 Z M 25.484375 -22.328125 "/></g></g></g><g fill="#ffffff" fill-opacity="1"><g transform="translate(142.155056, 36.705576)"><g><path d="M 9.171875 -19.375 C 9.941406 -20.457031 10.984375 -21.273438 12.296875 -21.828125 C 13.617188 -22.378906 15.132812 -22.65625 16.84375 -22.65625 L 16.84375 -16.6875 C 16.125 -16.738281 15.640625 -16.765625 15.390625 -16.765625 C 13.535156 -16.765625 12.082031 -16.242188 11.03125 -15.203125 C 9.988281 -14.171875 9.46875 -12.617188 9.46875 -10.546875 L 9.46875 0 L 2.984375 0 L 2.984375 -22.328125 L 9.171875 -22.328125 Z M 9.171875 -19.375 "/></g></g></g><g fill="#ffffff" fill-opacity="1"><g transform="translate(159.666336, 36.705576)"><g><path d="M 24.859375 -11.078125 C 24.859375 -10.992188 24.816406 -10.414062 24.734375 -9.34375 L 7.84375 -9.34375 C 8.144531 -7.957031 8.863281 -6.863281 10 -6.0625 C 11.132812 -5.257812 12.546875 -4.859375 14.234375 -4.859375 C 15.398438 -4.859375 16.429688 -5.03125 17.328125 -5.375 C 18.222656 -5.71875 19.0625 -6.265625 19.84375 -7.015625 L 23.28125 -3.28125 C 21.175781 -0.875 18.101562 0.328125 14.0625 0.328125 C 11.550781 0.328125 9.328125 -0.160156 7.390625 -1.140625 C 5.453125 -2.117188 3.957031 -3.476562 2.90625 -5.21875 C 1.851562 -6.96875 1.328125 -8.945312 1.328125 -11.15625 C 1.328125 -13.34375 1.84375 -15.316406 2.875 -17.078125 C 3.914062 -18.835938 5.34375 -20.207031 7.15625 -21.1875 C 8.96875 -22.164062 10.992188 -22.65625 13.234375 -22.65625 C 15.421875 -22.65625 17.398438 -22.1875 19.171875 -21.25 C 20.941406 -20.3125 22.332031 -18.960938 23.34375 -17.203125 C 24.351562 -15.441406 24.859375 -13.398438 24.859375 -11.078125 Z M 13.28125 -17.765625 C 11.8125 -17.765625 10.578125 -17.347656 9.578125 -16.515625 C 8.585938 -15.679688 7.984375 -14.546875 7.765625 -13.109375 L 18.765625 -13.109375 C 18.535156 -14.523438 17.921875 -15.65625 16.921875 -16.5 C 15.929688 -17.34375 14.71875 -17.765625 13.28125 -17.765625 Z M 13.28125 -17.765625 "/></g></g></g><g fill="#ffffff" fill-opacity="1"><g transform="translate(185.85027, 36.705576)"><g><path d="M 2.984375 -30.796875 L 9.46875 -30.796875 L 9.46875 0 L 2.984375 0 Z M 2.984375 -30.796875 "/></g></g></g><g fill="#ffffff" fill-opacity="1"><g transform="translate(198.340541, 36.705576)"><g><path d="M 25.15625 -22.328125 L 15.0625 1.375 C 14.039062 3.945312 12.773438 5.757812 11.265625 6.8125 C 9.753906 7.863281 7.9375 8.390625 5.8125 8.390625 C 4.644531 8.390625 3.492188 8.207031 2.359375 7.84375 C 1.222656 7.476562 0.296875 6.976562 -0.421875 6.34375 L 1.953125 1.75 C 2.453125 2.1875 3.023438 2.53125 3.671875 2.78125 C 4.316406 3.03125 4.960938 3.15625 5.609375 3.15625 C 6.492188 3.15625 7.210938 2.941406 7.765625 2.515625 C 8.316406 2.085938 8.8125 1.375 9.25 0.375 L 9.34375 0.171875 L -0.328125 -22.328125 L 6.34375 -22.328125 L 12.609375 -7.171875 L 18.921875 -22.328125 Z M 25.15625 -22.328125 "/></g></g></g></g></g><g clip-path="url(#c1502451ce)"><path fill="#ffffff" d="M 22.921875 19.101562 C 23.855469 19.101562 24.613281 19.859375 24.613281 20.792969 L 24.613281 47.867188 C 24.613281 48.804688 23.855469 49.5625 22.921875 49.5625 C 21.988281 49.5625 21.230469 48.804688 21.230469 47.867188 L 21.230469 20.792969 C 21.230469 19.859375 21.988281 19.101562 22.921875 19.101562 Z M 22.921875 19.101562 " fill-opacity="1" fill-rule="nonzero"/></g><path fill="#ffffff" d="M 7.691406 29.253906 C 8.625 29.253906 9.382812 30.011719 9.382812 30.945312 L 9.382812 37.714844 C 9.382812 38.652344 8.625 39.40625 7.691406 39.40625 C 6.757812 39.40625 6 38.652344 6 37.714844 L 6 30.945312 C 6 30.011719 6.757812 29.253906 7.691406 29.253906 Z M 7.691406 29.253906 " fill-opacity="1" fill-rule="nonzero"/><path fill="#ffffff" d="M 14.460938 25.871094 C 14.460938 24.9375 13.703125 24.179688 12.769531 24.179688 C 11.835938 24.179688 11.078125 24.9375 11.078125 25.871094 L 11.078125 42.792969 C 11.078125 43.726562 11.835938 44.484375 12.769531 44.484375 C 13.703125 44.484375 14.460938 43.726562 14.460938 42.792969 Z M 14.460938 25.871094 " fill-opacity="1" fill-rule="nonzero"/><path fill="#ffffff" d="M 17.84375 27.5625 C 18.78125 27.5625 19.539062 28.320312 19.539062 29.253906 L 19.539062 39.40625 C 19.539062 40.34375 18.78125 41.101562 17.84375 41.101562 C 16.910156 41.101562 16.152344 40.34375 16.152344 39.40625 L 16.152344 29.253906 C 16.152344 28.320312 16.910156 27.5625 17.84375 27.5625 Z M 17.84375 27.5625 " fill-opacity="1" fill-rule="nonzero"/><g clip-path="url(#a040f29f83)"><path fill="#ffffff" d="M 36.460938 30.945312 C 36.460938 30.011719 37.21875 29.253906 38.152344 29.253906 C 39.085938 29.253906 39.84375 30.011719 39.84375 30.945312 L 39.84375 37.714844 C 39.84375 38.652344 39.085938 39.40625 38.152344 39.40625 C 37.21875 39.40625 36.460938 38.652344 36.460938 37.714844 Z M 36.460938 30.945312 " fill-opacity="1" fill-rule="nonzero"/></g><path fill="#ffffff" d="M 33.074219 24.179688 C 34.007812 24.179688 34.765625 24.9375 34.765625 25.871094 L 34.765625 42.792969 C 34.765625 43.726562 34.007812 44.484375 33.074219 44.484375 C 32.140625 44.484375 31.382812 43.726562 31.382812 42.792969 L 31.382812 25.871094 C 31.382812 24.9375 32.140625 24.179688 33.074219 24.179688 Z M 33.074219 24.179688 " fill-opacity="1" fill-rule="nonzero"/><path fill="#ffffff" d="M 29.691406 29.253906 C 29.691406 28.320312 28.933594 27.5625 28 27.5625 C 27.0625 27.5625 26.304688 28.320312 26.304688 29.253906 L 26.304688 39.40625 C 26.304688 40.34375 27.0625 41.101562 28 41.101562 C 28.933594 41.101562 29.691406 40.34375 29.691406 39.40625 Z M 29.691406 29.253906 " fill-opacity="1" fill-rule="nonzero"/></svg>