<svg xmlns="http://www.w3.org/2000/svg" xmlns:xlink="http://www.w3.org/1999/xlink" width="400" zoomAndPan="magnify" viewBox="0 0 300 74.999997" height="100" preserveAspectRatio="xMidYMid meet" version="1.0"><defs><g/><clipPath id="146302980c"><path d="M 0.425781 42 L 10 42 L 10 57.914062 L 0.425781 57.914062 Z M 0.425781 42 " clip-rule="nonzero"/></clipPath><clipPath id="8822fff9a3"><path d="M 11 42 L 33 42 L 33 57.914062 L 11 57.914062 Z M 11 42 " clip-rule="nonzero"/></clipPath><clipPath id="208290ab64"><path d="M 34 42 L 43.304688 42 L 43.304688 57.914062 L 34 57.914062 Z M 34 42 " clip-rule="nonzero"/></clipPath><clipPath id="5fd9744828"><path d="M 49 14 L 291 14 L 291 67.078125 L 49 67.078125 Z M 49 14 " clip-rule="nonzero"/></clipPath><clipPath id="d5f73f6707"><rect x="0" width="242" y="0" height="54"/></clipPath><clipPath id="924a11a4cd"><rect x="0" width="291" y="0" height="68"/></clipPath></defs><g transform="matrix(1, 0, 0, 1, 3, 3)"><g clip-path="url(#924a11a4cd)"><path fill="#ffffff" d="M 35.109375 20.160156 C 35.101562 20.132812 35.09375 20.105469 35.09375 20.074219 C 35.023438 19.734375 34.898438 19.417969 34.722656 19.121094 C 34.542969 18.820312 34.320312 18.5625 34.050781 18.34375 C 33.78125 18.125 33.484375 17.953125 33.160156 17.835938 C 32.832031 17.722656 32.496094 17.664062 32.148438 17.660156 L 11.886719 17.660156 C 11.488281 17.664062 11.105469 17.738281 10.738281 17.890625 C 10.371094 18.042969 10.046875 18.257812 9.765625 18.539062 C 9.484375 18.820312 9.269531 19.144531 9.117188 19.511719 C 8.964844 19.878906 8.886719 20.261719 8.886719 20.660156 L 8.886719 31.742188 C 8.886719 32.140625 8.964844 32.523438 9.117188 32.890625 C 9.269531 33.257812 9.484375 33.582031 9.765625 33.863281 C 10.046875 34.144531 10.371094 34.363281 10.738281 34.515625 C 11.105469 34.667969 11.488281 34.742188 11.886719 34.742188 L 32.148438 34.742188 C 32.546875 34.742188 32.929688 34.667969 33.296875 34.515625 C 33.664062 34.363281 33.988281 34.144531 34.269531 33.863281 C 34.550781 33.582031 34.765625 33.257812 34.917969 32.890625 C 35.070312 32.523438 35.148438 32.140625 35.148438 31.742188 L 35.148438 20.660156 C 35.148438 20.492188 35.136719 20.328125 35.109375 20.160156 Z M 15.8125 28.5 C 15.304688 28.5 14.820312 28.40625 14.351562 28.210938 C 13.882812 28.015625 13.46875 27.742188 13.113281 27.382812 C 12.753906 27.027344 12.476562 26.613281 12.285156 26.144531 C 12.089844 25.675781 11.992188 25.191406 11.992188 24.683594 C 11.992188 24.175781 12.089844 23.691406 12.285156 23.222656 C 12.476562 22.753906 12.753906 22.339844 13.113281 21.984375 C 13.46875 21.625 13.882812 21.347656 14.351562 21.15625 C 14.816406 20.960938 15.304688 20.863281 15.8125 20.863281 C 16.316406 20.863281 16.804688 20.960938 17.273438 21.15625 C 17.742188 21.347656 18.152344 21.625 18.511719 21.984375 C 18.871094 22.339844 19.144531 22.753906 19.339844 23.222656 C 19.535156 23.691406 19.628906 24.175781 19.628906 24.683594 C 19.628906 25.191406 19.53125 25.675781 19.339844 26.144531 C 19.144531 26.613281 18.867188 27.023438 18.511719 27.382812 C 18.152344 27.738281 17.738281 28.015625 17.273438 28.210938 C 16.804688 28.402344 16.320312 28.5 15.8125 28.5 Z M 28.222656 28.5 C 27.714844 28.5 27.230469 28.40625 26.761719 28.210938 C 26.292969 28.015625 25.882812 27.742188 25.523438 27.382812 C 25.164062 27.023438 24.890625 26.613281 24.695312 26.144531 C 24.5 25.675781 24.40625 25.1875 24.40625 24.683594 C 24.40625 24.175781 24.5 23.6875 24.695312 23.222656 C 24.890625 22.753906 25.164062 22.339844 25.523438 21.980469 C 25.882812 21.625 26.292969 21.347656 26.761719 21.15625 C 27.230469 20.960938 27.71875 20.863281 28.222656 20.863281 C 28.730469 20.863281 29.21875 20.960938 29.683594 21.15625 C 30.152344 21.347656 30.566406 21.625 30.925781 21.984375 C 31.28125 22.339844 31.558594 22.753906 31.75 23.222656 C 31.945312 23.691406 32.042969 24.175781 32.042969 24.683594 C 32.039062 25.191406 31.945312 25.675781 31.75 26.144531 C 31.554688 26.613281 31.28125 27.023438 30.921875 27.382812 C 30.5625 27.738281 30.152344 28.015625 29.683594 28.210938 C 29.214844 28.402344 28.730469 28.5 28.222656 28.5 Z M 28.222656 28.5 " fill-opacity="1" fill-rule="nonzero"/><path fill="#ffffff" d="M 29.980469 24.683594 C 29.980469 24.917969 29.933594 25.140625 29.847656 25.355469 C 29.757812 25.570312 29.628906 25.761719 29.464844 25.925781 C 29.300781 26.089844 29.109375 26.21875 28.894531 26.308594 C 28.679688 26.394531 28.457031 26.441406 28.222656 26.441406 C 27.988281 26.441406 27.765625 26.394531 27.550781 26.308594 C 27.335938 26.21875 27.144531 26.089844 26.980469 25.925781 C 26.816406 25.761719 26.6875 25.570312 26.601562 25.355469 C 26.511719 25.140625 26.464844 24.917969 26.464844 24.683594 C 26.464844 24.449219 26.511719 24.226562 26.601562 24.011719 C 26.6875 23.796875 26.816406 23.605469 26.980469 23.441406 C 27.144531 23.277344 27.335938 23.148438 27.550781 23.0625 C 27.765625 22.972656 27.988281 22.925781 28.222656 22.925781 C 28.457031 22.925781 28.679688 22.972656 28.894531 23.0625 C 29.109375 23.152344 29.300781 23.277344 29.464844 23.441406 C 29.628906 23.605469 29.757812 23.796875 29.84375 24.011719 C 29.933594 24.226562 29.980469 24.453125 29.980469 24.683594 Z M 29.980469 24.683594 " fill-opacity="1" fill-rule="nonzero"/><path fill="#ffffff" d="M 17.566406 24.683594 C 17.566406 24.917969 17.523438 25.140625 17.433594 25.355469 C 17.34375 25.570312 17.21875 25.761719 17.054688 25.925781 C 16.886719 26.089844 16.699219 26.21875 16.484375 26.308594 C 16.269531 26.394531 16.042969 26.441406 15.8125 26.441406 C 15.578125 26.441406 15.355469 26.394531 15.140625 26.308594 C 14.921875 26.21875 14.734375 26.089844 14.570312 25.925781 C 14.402344 25.761719 14.277344 25.570312 14.1875 25.355469 C 14.097656 25.140625 14.054688 24.917969 14.054688 24.683594 C 14.054688 24.449219 14.101562 24.226562 14.1875 24.011719 C 14.277344 23.796875 14.40625 23.605469 14.570312 23.441406 C 14.734375 23.277344 14.925781 23.148438 15.140625 23.0625 C 15.355469 22.972656 15.578125 22.925781 15.8125 22.925781 C 16.046875 22.929688 16.269531 22.972656 16.484375 23.0625 C 16.699219 23.152344 16.890625 23.277344 17.054688 23.441406 C 17.21875 23.609375 17.34375 23.796875 17.433594 24.011719 C 17.523438 24.226562 17.566406 24.453125 17.566406 24.683594 Z M 17.566406 24.683594 " fill-opacity="1" fill-rule="nonzero"/><g clip-path="url(#146302980c)"><path fill="#ffffff" d="M 9.480469 42.84375 L 9.480469 58.21875 L 0.453125 58.21875 L 0.453125 52.675781 C 0.453125 52.066406 0.511719 51.457031 0.625 50.855469 C 0.738281 50.253906 0.90625 49.667969 1.128906 49.097656 C 1.351562 48.527344 1.625 47.980469 1.949219 47.460938 C 2.273438 46.941406 2.640625 46.457031 3.054688 46.007812 C 3.46875 45.554688 3.921875 45.144531 4.410156 44.777344 C 4.902344 44.410156 5.421875 44.09375 5.972656 43.824219 C 6.519531 43.550781 7.089844 43.335938 7.679688 43.171875 C 8.269531 43.003906 8.871094 42.894531 9.480469 42.84375 Z M 9.480469 42.84375 " fill-opacity="1" fill-rule="nonzero"/></g><g clip-path="url(#8822fff9a3)"><path fill="#ffffff" d="M 11.542969 42.808594 L 32.492188 42.808594 L 32.492188 58.21875 L 11.542969 58.21875 Z M 11.542969 42.808594 " fill-opacity="1" fill-rule="nonzero"/></g><g clip-path="url(#208290ab64)"><path fill="#ffffff" d="M 43.582031 52.675781 L 43.582031 58.21875 L 34.5625 58.21875 L 34.5625 42.84375 C 35.171875 42.898438 35.773438 43.007812 36.359375 43.171875 C 36.949219 43.335938 37.519531 43.554688 38.070312 43.824219 C 38.617188 44.09375 39.136719 44.414062 39.628906 44.78125 C 40.117188 45.148438 40.570312 45.558594 40.984375 46.007812 C 41.398438 46.460938 41.765625 46.945312 42.089844 47.464844 C 42.414062 47.984375 42.6875 48.527344 42.90625 49.097656 C 43.128906 49.667969 43.296875 50.253906 43.410156 50.855469 C 43.527344 51.457031 43.582031 52.066406 43.582031 52.675781 Z M 43.582031 52.675781 " fill-opacity="1" fill-rule="nonzero"/></g><path fill="#ffffff" d="M 14.902344 36.800781 L 29.132812 36.800781 L 29.132812 40.746094 L 14.902344 40.746094 Z M 14.902344 36.800781 " fill-opacity="1" fill-rule="nonzero"/><path fill="#ffffff" d="M 6.824219 21.070312 L 6.824219 31.320312 C 6.300781 31.214844 5.808594 31.035156 5.339844 30.777344 C 4.871094 30.519531 4.453125 30.199219 4.082031 29.8125 C 3.714844 29.429688 3.410156 28.996094 3.171875 28.519531 C 2.9375 28.042969 2.777344 27.539062 2.691406 27.011719 C 2.609375 26.484375 2.605469 25.957031 2.683594 25.429688 C 2.761719 24.902344 2.917969 24.398438 3.152344 23.917969 C 3.382812 23.4375 3.683594 23.003906 4.046875 22.613281 C 4.414062 22.226562 4.828125 21.902344 5.292969 21.640625 C 5.773438 21.367188 6.285156 21.179688 6.824219 21.070312 Z M 6.824219 21.070312 " fill-opacity="1" fill-rule="nonzero"/><path fill="#ffffff" d="M 41.40625 26.195312 C 41.40625 26.800781 41.304688 27.386719 41.101562 27.953125 C 40.898438 28.523438 40.605469 29.039062 40.222656 29.507812 C 39.839844 29.972656 39.390625 30.363281 38.875 30.675781 C 38.355469 30.984375 37.800781 31.203125 37.210938 31.320312 L 37.210938 21.070312 C 37.75 21.179688 38.261719 21.367188 38.742188 21.636719 C 39.566406 22.101562 40.214844 22.742188 40.691406 23.554688 C 41.167969 24.371094 41.40625 25.25 41.40625 26.195312 Z M 41.40625 26.195312 " fill-opacity="1" fill-rule="nonzero"/><path fill="#ffffff" d="M 27.242188 15.59375 L 16.792969 15.59375 C 16.914062 14.988281 17.132812 14.421875 17.449219 13.890625 C 17.765625 13.363281 18.160156 12.902344 18.636719 12.511719 C 19.113281 12.121094 19.640625 11.820312 20.222656 11.613281 C 20.804688 11.402344 21.402344 11.300781 22.019531 11.300781 C 22.632812 11.300781 23.234375 11.402344 23.8125 11.613281 C 24.394531 11.820312 24.921875 12.117188 25.398438 12.511719 C 25.875 12.902344 26.269531 13.363281 26.585938 13.890625 C 26.902344 14.421875 27.121094 14.988281 27.242188 15.59375 Z M 27.242188 15.59375 " fill-opacity="1" fill-rule="nonzero"/><path fill="#ffffff" d="M 23.433594 2.417969 C 23.433594 2.605469 23.398438 2.785156 23.328125 2.960938 C 23.253906 3.132812 23.152344 3.285156 23.019531 3.421875 C 22.886719 3.554688 22.734375 3.65625 22.558594 3.726562 C 22.386719 3.800781 22.207031 3.835938 22.019531 3.835938 C 21.828125 3.835938 21.648438 3.800781 21.476562 3.726562 C 21.300781 3.65625 21.148438 3.554688 21.015625 3.421875 C 20.882812 3.285156 20.78125 3.132812 20.707031 2.960938 C 20.636719 2.785156 20.601562 2.605469 20.601562 2.417969 C 20.601562 2.230469 20.636719 2.046875 20.707031 1.875 C 20.78125 1.703125 20.882812 1.546875 21.015625 1.414062 C 21.148438 1.28125 21.300781 1.179688 21.476562 1.109375 C 21.648438 1.035156 21.828125 1 22.019531 1 C 22.207031 1 22.386719 1.035156 22.558594 1.109375 C 22.734375 1.179688 22.886719 1.28125 23.019531 1.414062 C 23.152344 1.546875 23.253906 1.703125 23.328125 1.875 C 23.398438 2.046875 23.433594 2.230469 23.433594 2.417969 Z M 23.433594 2.417969 " fill-opacity="1" fill-rule="nonzero"/><path fill="#ffffff" d="M 23.050781 5.738281 L 23.050781 9.308594 C 22.363281 9.214844 21.675781 9.214844 20.988281 9.308594 L 20.988281 5.738281 C 21.675781 5.953125 22.363281 5.953125 23.050781 5.738281 Z M 23.050781 5.738281 " fill-opacity="1" fill-rule="nonzero"/><g clip-path="url(#5fd9744828)"><g transform="matrix(1, 0, 0, 1, 49, 14)"><g clip-path="url(#d5f73f6707)"><g fill="#ffffff" fill-opacity="1"><g transform="translate(1.326565, 39.171405)"><g><path d="M 31.640625 0 L 31.59375 -18.453125 L 22.546875 -3.25 L 19.328125 -3.25 L 10.328125 -18.0625 L 10.328125 0 L 3.640625 0 L 3.640625 -30.75 L 9.53125 -30.75 L 21.046875 -11.640625 L 32.375 -30.75 L 38.21875 -30.75 L 38.3125 0 Z M 31.640625 0 "/></g></g></g><g fill="#ffffff" fill-opacity="1"><g transform="translate(43.286011, 39.171405)"><g><path d="M 26.3125 -11.734375 C 26.3125 -11.640625 26.269531 -11.023438 26.1875 -9.890625 L 8.296875 -9.890625 C 8.617188 -8.421875 9.378906 -7.257812 10.578125 -6.40625 C 11.785156 -5.5625 13.285156 -5.140625 15.078125 -5.140625 C 16.304688 -5.140625 17.394531 -5.320312 18.34375 -5.6875 C 19.289062 -6.050781 20.175781 -6.628906 21 -7.421875 L 24.65625 -3.46875 C 22.425781 -0.925781 19.171875 0.34375 14.890625 0.34375 C 12.222656 0.34375 9.863281 -0.171875 7.8125 -1.203125 C 5.769531 -2.242188 4.191406 -3.6875 3.078125 -5.53125 C 1.960938 -7.375 1.40625 -9.46875 1.40625 -11.8125 C 1.40625 -14.132812 1.953125 -16.222656 3.046875 -18.078125 C 4.148438 -19.941406 5.660156 -21.390625 7.578125 -22.421875 C 9.492188 -23.460938 11.640625 -23.984375 14.015625 -23.984375 C 16.328125 -23.984375 18.421875 -23.484375 20.296875 -22.484375 C 22.171875 -21.492188 23.640625 -20.066406 24.703125 -18.203125 C 25.773438 -16.347656 26.3125 -14.191406 26.3125 -11.734375 Z M 14.0625 -18.8125 C 12.507812 -18.8125 11.203125 -18.367188 10.140625 -17.484375 C 9.085938 -16.609375 8.445312 -15.410156 8.21875 -13.890625 L 19.859375 -13.890625 C 19.628906 -15.378906 18.984375 -16.570312 17.921875 -17.46875 C 16.867188 -18.363281 15.582031 -18.8125 14.0625 -18.8125 Z M 14.0625 -18.8125 "/></g></g></g><g fill="#ffffff" fill-opacity="1"><g transform="translate(71.010013, 39.171405)"><g><path d="M 12.703125 -23.984375 C 16.359375 -23.984375 19.164062 -23.113281 21.125 -21.375 C 23.09375 -19.632812 24.078125 -17.003906 24.078125 -13.484375 L 24.078125 0 L 17.65625 0 L 17.65625 -2.9375 C 16.375 -0.75 13.972656 0.34375 10.453125 0.34375 C 8.640625 0.34375 7.066406 0.0351562 5.734375 -0.578125 C 4.398438 -1.191406 3.378906 -2.039062 2.671875 -3.125 C 1.972656 -4.207031 1.625 -5.4375 1.625 -6.8125 C 1.625 -9.007812 2.453125 -10.738281 4.109375 -12 C 5.765625 -13.257812 8.320312 -13.890625 11.78125 -13.890625 L 17.21875 -13.890625 C 17.21875 -15.378906 16.765625 -16.523438 15.859375 -17.328125 C 14.953125 -18.140625 13.59375 -18.546875 11.78125 -18.546875 C 10.519531 -18.546875 9.28125 -18.347656 8.0625 -17.953125 C 6.84375 -17.554688 5.8125 -17.019531 4.96875 -16.34375 L 2.5 -21.140625 C 3.789062 -22.046875 5.335938 -22.742188 7.140625 -23.234375 C 8.941406 -23.734375 10.796875 -23.984375 12.703125 -23.984375 Z M 12.171875 -4.265625 C 13.335938 -4.265625 14.375 -4.535156 15.28125 -5.078125 C 16.195312 -5.617188 16.84375 -6.414062 17.21875 -7.46875 L 17.21875 -9.890625 L 12.515625 -9.890625 C 9.703125 -9.890625 8.296875 -8.96875 8.296875 -7.125 C 8.296875 -6.238281 8.640625 -5.539062 9.328125 -5.03125 C 10.023438 -4.519531 10.972656 -4.265625 12.171875 -4.265625 Z M 12.171875 -4.265625 "/></g></g></g><g fill="#ffffff" fill-opacity="1"><g transform="translate(98.118906, 39.171405)"><g><path d="M 11.109375 0.34375 C 9.148438 0.34375 7.234375 0.101562 5.359375 -0.375 C 3.484375 -0.851562 1.988281 -1.460938 0.875 -2.203125 L 3.15625 -7.125 C 4.21875 -6.445312 5.492188 -5.894531 6.984375 -5.46875 C 8.484375 -5.039062 9.945312 -4.828125 11.375 -4.828125 C 14.28125 -4.828125 15.734375 -5.546875 15.734375 -6.984375 C 15.734375 -7.660156 15.335938 -8.144531 14.546875 -8.4375 C 13.753906 -8.726562 12.535156 -8.976562 10.890625 -9.1875 C 8.960938 -9.476562 7.367188 -9.8125 6.109375 -10.1875 C 4.847656 -10.570312 3.753906 -11.25 2.828125 -12.21875 C 1.910156 -13.1875 1.453125 -14.5625 1.453125 -16.34375 C 1.453125 -17.832031 1.882812 -19.15625 2.75 -20.3125 C 3.613281 -21.476562 4.867188 -22.378906 6.515625 -23.015625 C 8.171875 -23.660156 10.128906 -23.984375 12.390625 -23.984375 C 14.054688 -23.984375 15.71875 -23.800781 17.375 -23.4375 C 19.03125 -23.070312 20.398438 -22.566406 21.484375 -21.921875 L 19.203125 -17.046875 C 17.117188 -18.222656 14.847656 -18.8125 12.390625 -18.8125 C 10.921875 -18.8125 9.820312 -18.601562 9.09375 -18.1875 C 8.363281 -17.78125 8 -17.253906 8 -16.609375 C 8 -15.878906 8.394531 -15.363281 9.1875 -15.0625 C 9.976562 -14.769531 11.238281 -14.492188 12.96875 -14.234375 C 14.894531 -13.910156 16.472656 -13.566406 17.703125 -13.203125 C 18.929688 -12.835938 20 -12.171875 20.90625 -11.203125 C 21.820312 -10.234375 22.28125 -8.882812 22.28125 -7.15625 C 22.28125 -5.695312 21.835938 -4.394531 20.953125 -3.25 C 20.078125 -2.101562 18.796875 -1.21875 17.109375 -0.59375 C 15.429688 0.03125 13.429688 0.34375 11.109375 0.34375 Z M 11.109375 0.34375 "/></g></g></g><g fill="#ffffff" fill-opacity="1"><g transform="translate(121.449241, 39.171405)"><g><path d="M 26.984375 -23.640625 L 26.984375 0 L 20.46875 0 L 20.46875 -2.8125 C 19.5625 -1.789062 18.476562 -1.007812 17.21875 -0.46875 C 15.957031 0.0703125 14.597656 0.34375 13.140625 0.34375 C 10.035156 0.34375 7.570312 -0.546875 5.75 -2.328125 C 3.9375 -4.117188 3.03125 -6.769531 3.03125 -10.28125 L 3.03125 -23.640625 L 9.890625 -23.640625 L 9.890625 -11.296875 C 9.890625 -7.484375 11.484375 -5.578125 14.671875 -5.578125 C 16.316406 -5.578125 17.632812 -6.109375 18.625 -7.171875 C 19.625 -8.242188 20.125 -9.835938 20.125 -11.953125 L 20.125 -23.640625 Z M 26.984375 -23.640625 "/></g></g></g><g fill="#ffffff" fill-opacity="1"><g transform="translate(151.633676, 39.171405)"><g><path d="M 9.703125 -20.515625 C 10.523438 -21.660156 11.628906 -22.523438 13.015625 -23.109375 C 14.410156 -23.691406 16.019531 -23.984375 17.84375 -23.984375 L 17.84375 -17.65625 C 17.082031 -17.71875 16.566406 -17.75 16.296875 -17.75 C 14.335938 -17.75 12.800781 -17.195312 11.6875 -16.09375 C 10.570312 -15 10.015625 -13.351562 10.015625 -11.15625 L 10.015625 0 L 3.15625 0 L 3.15625 -23.640625 L 9.703125 -23.640625 Z M 9.703125 -20.515625 "/></g></g></g><g fill="#ffffff" fill-opacity="1"><g transform="translate(170.570343, 39.171405)"><g><path d="M 26.3125 -11.734375 C 26.3125 -11.640625 26.269531 -11.023438 26.1875 -9.890625 L 8.296875 -9.890625 C 8.617188 -8.421875 9.378906 -7.257812 10.578125 -6.40625 C 11.785156 -5.5625 13.285156 -5.140625 15.078125 -5.140625 C 16.304688 -5.140625 17.394531 -5.320312 18.34375 -5.6875 C 19.289062 -6.050781 20.175781 -6.628906 21 -7.421875 L 24.65625 -3.46875 C 22.425781 -0.925781 19.171875 0.34375 14.890625 0.34375 C 12.222656 0.34375 9.863281 -0.171875 7.8125 -1.203125 C 5.769531 -2.242188 4.191406 -3.6875 3.078125 -5.53125 C 1.960938 -7.375 1.40625 -9.46875 1.40625 -11.8125 C 1.40625 -14.132812 1.953125 -16.222656 3.046875 -18.078125 C 4.148438 -19.941406 5.660156 -21.390625 7.578125 -22.421875 C 9.492188 -23.460938 11.640625 -23.984375 14.015625 -23.984375 C 16.328125 -23.984375 18.421875 -23.484375 20.296875 -22.484375 C 22.171875 -21.492188 23.640625 -20.066406 24.703125 -18.203125 C 25.773438 -16.347656 26.3125 -14.191406 26.3125 -11.734375 Z M 14.0625 -18.8125 C 12.507812 -18.8125 11.203125 -18.367188 10.140625 -17.484375 C 9.085938 -16.609375 8.445312 -15.410156 8.21875 -13.890625 L 19.859375 -13.890625 C 19.628906 -15.378906 18.984375 -16.570312 17.921875 -17.46875 C 16.867188 -18.363281 15.582031 -18.8125 14.0625 -18.8125 Z M 14.0625 -18.8125 "/></g></g></g><g fill="#ffffff" fill-opacity="1"><g transform="translate(198.294345, 39.171405)"><g><path d="M 3.15625 -32.609375 L 10.015625 -32.609375 L 10.015625 0 L 3.15625 0 Z M 3.15625 -32.609375 "/></g></g></g><g fill="#ffffff" fill-opacity="1"><g transform="translate(211.51926, 39.171405)"><g><path d="M 26.625 -23.640625 L 15.953125 1.453125 C 14.867188 4.171875 13.523438 6.085938 11.921875 7.203125 C 10.328125 8.316406 8.40625 8.875 6.15625 8.875 C 4.925781 8.875 3.707031 8.679688 2.5 8.296875 C 1.300781 7.921875 0.320312 7.394531 -0.4375 6.71875 L 2.0625 1.84375 C 2.59375 2.3125 3.203125 2.675781 3.890625 2.9375 C 4.578125 3.207031 5.257812 3.34375 5.9375 3.34375 C 6.875 3.34375 7.632812 3.113281 8.21875 2.65625 C 8.800781 2.207031 9.328125 1.453125 9.796875 0.390625 L 9.890625 0.171875 L -0.34375 -23.640625 L 6.71875 -23.640625 L 13.359375 -7.59375 L 20.03125 -23.640625 Z M 26.625 -23.640625 "/></g></g></g></g></g></g></g></g></svg>