<svg xmlns="http://www.w3.org/2000/svg" xmlns:xlink="http://www.w3.org/1999/xlink" width="192" zoomAndPan="magnify" viewBox="0 0 144 143.999998" height="192" preserveAspectRatio="xMidYMid meet" version="1.0"><defs><clipPath id="879c22c9f9"><path d="M 0 0 L 144 0 L 144 144 L 0 144 Z M 0 0 " clip-rule="nonzero"/></clipPath><clipPath id="f8907519b3"><rect x="0" width="144" y="0" height="144"/></clipPath></defs><rect x="-14.4" width="172.8" fill="#ffffff" y="-14.4" height="172.799997" fill-opacity="1"/><rect x="-14.4" width="172.8" fill="#ffffff" y="-14.4" height="172.799997" fill-opacity="1"/><g transform="matrix(1, 0, 0, 1, 0, -0.000000000000008916)"><g clip-path="url(#f8907519b3)"><g clip-path="url(#879c22c9f9)"><rect x="-31.68" width="207.36" fill="#ffffff" height="207.359996" y="-31.679999" fill-opacity="1"/></g><path stroke-linecap="butt" transform="matrix(4.965517, 0, 0, 4.965517, 0.00000125, 0.000002)" fill-opacity="1" fill="#ffffff" fill-rule="nonzero" stroke-linejoin="miter" d="M 1.999729 2.500054 L 9.000353 2.500054 M 11.000082 2.500054 L 12.999811 2.500054 M 15.000326 2.500054 L 16.000191 2.500054 M 17.99992 2.500054 L 18.999784 2.500054 M 19.999648 2.500054 L 27.000273 2.500054 M 1.999729 3.499918 L 3.00038 3.499918 M 7.999702 3.499918 L 9.000353 3.499918 M 11.000082 3.499918 L 12.999811 3.499918 M 16.000191 3.499918 L 17.99992 3.499918 M 19.999648 3.499918 L 21.0003 3.499918 M 25.999622 3.499918 L 27.000273 3.499918 M 1.999729 4.499783 L 3.00038 4.499783 M 4.000244 4.499783 L 6.999837 4.499783 M 7.999702 4.499783 L 9.000353 4.499783 M 10.000217 4.499783 L 11.000082 4.499783 M 11.999946 4.499783 L 12.999811 4.499783 M 13.999675 4.499783 L 15.000326 4.499783 M 17.99992 4.499783 L 18.999784 4.499783 M 19.999648 4.499783 L 21.0003 4.499783 M 22.000164 4.499783 L 24.999757 4.499783 M 25.999622 4.499783 L 27.000273 4.499783 M 1.999729 5.499647 L 3.00038 5.499647 M 4.000244 5.499647 L 6.999837 5.499647 M 7.999702 5.499647 L 9.000353 5.499647 M 10.000217 5.499647 L 11.000082 5.499647 M 12.999811 5.499647 L 17.000055 5.499647 M 19.999648 5.499647 L 21.0003 5.499647 M 22.000164 5.499647 L 24.999757 5.499647 M 25.999622 5.499647 L 27.000273 5.499647 M 1.999729 6.500298 L 3.00038 6.500298 M 4.000244 6.500298 L 6.999837 6.500298 M 7.999702 6.500298 L 9.000353 6.500298 M 10.000217 6.500298 L 12.999811 6.500298 M 15.000326 6.500298 L 16.000191 6.500298 M 19.999648 6.500298 L 21.0003 6.500298 M 22.000164 6.500298 L 24.999757 6.500298 M 25.999622 6.500298 L 27.000273 6.500298 M 1.999729 7.500163 L 3.00038 7.500163 M 7.999702 7.500163 L 9.000353 7.500163 M 10.000217 7.500163 L 11.000082 7.500163 M 12.999811 7.500163 L 13.999675 7.500163 M 15.000326 7.500163 L 18.999784 7.500163 M 19.999648 7.500163 L 21.0003 7.500163 M 25.999622 7.500163 L 27.000273 7.500163 M 1.999729 8.500027 L 9.000353 8.500027 M 10.000217 8.500027 L 11.000082 8.500027 M 11.999946 8.500027 L 12.999811 8.500027 M 13.999675 8.500027 L 15.000326 8.500027 M 16.000191 8.500027 L 17.000055 8.500027 M 17.99992 8.500027 L 18.999784 8.500027 M 19.999648 8.500027 L 27.000273 8.500027 M 10.000217 9.499892 L 11.999946 9.499892 M 13.999675 9.499892 L 15.000326 9.499892 M 16.000191 9.499892 L 17.99992 9.499892 M 1.999729 10.499756 L 3.00038 10.499756 M 4.000244 10.499756 L 9.000353 10.499756 M 11.000082 10.499756 L 12.999811 10.499756 M 15.000326 10.499756 L 17.000055 10.499756 M 17.99992 10.499756 L 18.999784 10.499756 M 19.999648 10.499756 L 24.999757 10.499756 M 1.999729 11.499621 L 3.00038 11.499621 M 4.000244 11.499621 L 6.999837 11.499621 M 9.000353 11.499621 L 11.000082 11.499621 M 13.999675 11.499621 L 15.000326 11.499621 M 17.99992 11.499621 L 18.999784 11.499621 M 21.0003 11.499621 L 22.000164 11.499621 M 24.999757 11.499621 L 25.999622 11.499621 M 3.00038 12.500272 L 4.000244 12.500272 M 5.999973 12.500272 L 6.999837 12.500272 M 7.999702 12.500272 L 9.000353 12.500272 M 10.000217 12.500272 L 11.999946 12.500272 M 12.999811 12.500272 L 16.000191 12.500272 M 17.000055 12.500272 L 17.99992 12.500272 M 19.999648 12.500272 L 22.000164 12.500272 M 23.000028 12.500272 L 23.999893 12.500272 M 24.999757 12.500272 L 27.000273 12.500272 M 1.999729 13.500136 L 3.00038 13.500136 M 4.000244 13.500136 L 6.999837 13.500136 M 9.000353 13.500136 L 10.000217 13.500136 M 11.000082 13.500136 L 12.999811 13.500136 M 13.999675 13.500136 L 15.000326 13.500136 M 16.000191 13.500136 L 22.000164 13.500136 M 25.999622 13.500136 L 27.000273 13.500136 M 1.999729 14.500001 L 3.00038 14.500001 M 4.000244 14.500001 L 6.999837 14.500001 M 7.999702 14.500001 L 9.000353 14.500001 M 10.000217 14.500001 L 11.000082 14.500001 M 11.999946 14.500001 L 12.999811 14.500001 M 13.999675 14.500001 L 17.000055 14.500001 M 18.999784 14.500001 L 21.0003 14.500001 M 22.000164 14.500001 L 23.000028 14.500001 M 23.999893 14.500001 L 27.000273 14.500001 M 1.999729 15.499865 L 3.00038 15.499865 M 5.999973 15.499865 L 6.999837 15.499865 M 9.000353 15.499865 L 12.999811 15.499865 M 13.999675 15.499865 L 15.000326 15.499865 M 17.99992 15.499865 L 19.999648 15.499865 M 21.0003 15.499865 L 22.000164 15.499865 M 23.000028 15.499865 L 23.999893 15.499865 M 24.999757 15.499865 L 25.999622 15.499865 M 1.999729 16.499729 L 3.00038 16.499729 M 4.000244 16.499729 L 5.999973 16.499729 M 6.999837 16.499729 L 9.000353 16.499729 M 10.000217 16.499729 L 11.000082 16.499729 M 13.999675 16.499729 L 15.000326 16.499729 M 17.000055 16.499729 L 18.999784 16.499729 M 19.999648 16.499729 L 22.000164 16.499729 M 23.000028 16.499729 L 23.999893 16.499729 M 24.999757 16.499729 L 27.000273 16.499729 M 1.999729 17.500381 L 3.00038 17.500381 M 4.000244 17.500381 L 5.999973 17.500381 M 6.999837 17.500381 L 7.999702 17.500381 M 10.000217 17.500381 L 11.000082 17.500381 M 16.000191 17.500381 L 19.999648 17.500381 M 21.0003 17.500381 L 23.999893 17.500381 M 25.999622 17.500381 L 27.000273 17.500381 M 1.999729 18.500245 L 3.00038 18.500245 M 5.999973 18.500245 L 6.999837 18.500245 M 7.999702 18.500245 L 9.000353 18.500245 M 15.000326 18.500245 L 23.000028 18.500245 M 23.999893 18.500245 L 24.999757 18.500245 M 10.000217 19.500109 L 11.000082 19.500109 M 11.999946 19.500109 L 13.999675 19.500109 M 15.000326 19.500109 L 16.000191 19.500109 M 17.000055 19.500109 L 18.999784 19.500109 M 22.000164 19.500109 L 24.999757 19.500109 M 1.999729 20.499974 L 9.000353 20.499974 M 11.999946 20.499974 L 13.999675 20.499974 M 16.000191 20.499974 L 17.000055 20.499974 M 17.99992 20.499974 L 18.999784 20.499974 M 19.999648 20.499974 L 21.0003 20.499974 M 22.000164 20.499974 L 27.000273 20.499974 M 1.999729 21.499838 L 3.00038 21.499838 M 7.999702 21.499838 L 9.000353 21.499838 M 10.000217 21.499838 L 11.000082 21.499838 M 13.999675 21.499838 L 15.000326 21.499838 M 17.99992 21.499838 L 18.999784 21.499838 M 22.000164 21.499838 L 23.999893 21.499838 M 24.999757 21.499838 L 25.999622 21.499838 M 1.999729 22.499703 L 3.00038 22.499703 M 4.000244 22.499703 L 6.999837 22.499703 M 7.999702 22.499703 L 9.000353 22.499703 M 10.000217 22.499703 L 11.999946 22.499703 M 15.000326 22.499703 L 16.000191 22.499703 M 17.000055 22.499703 L 27.000273 22.499703 M 1.999729 23.500354 L 3.00038 23.500354 M 4.000244 23.500354 L 6.999837 23.500354 M 7.999702 23.500354 L 9.000353 23.500354 M 10.000217 23.500354 L 11.999946 23.500354 M 13.999675 23.500354 L 21.0003 23.500354 M 22.000164 23.500354 L 23.000028 23.500354 M 23.999893 23.500354 L 27.000273 23.500354 M 1.999729 24.500218 L 3.00038 24.500218 M 4.000244 24.500218 L 6.999837 24.500218 M 7.999702 24.500218 L 9.000353 24.500218 M 10.000217 24.500218 L 12.999811 24.500218 M 13.999675 24.500218 L 16.000191 24.500218 M 17.000055 24.500218 L 17.99992 24.500218 M 18.999784 24.500218 L 19.999648 24.500218 M 21.0003 24.500218 L 22.000164 24.500218 M 23.999893 24.500218 L 24.999757 24.500218 M 25.999622 24.500218 L 27.000273 24.500218 M 1.999729 25.500083 L 3.00038 25.500083 M 7.999702 25.500083 L 9.000353 25.500083 M 11.000082 25.500083 L 11.999946 25.500083 M 13.999675 25.500083 L 15.000326 25.500083 M 17.99992 25.500083 L 23.999893 25.500083 M 25.999622 25.500083 L 27.000273 25.500083 M 1.999729 26.499947 L 9.000353 26.499947 M 10.000217 26.499947 L 11.999946 26.499947 M 18.999784 26.499947 L 27.000273 26.499947 " stroke="#000000" stroke-width="1" stroke-opacity="1" stroke-miterlimit="4"/></g></g></svg>